# xmcd
# Copyright (C) 1995-1998 Ti Kan
#
# Track frame offsets:
#       150
#       85653
#       160269
#       224863
#
# Disc length: 3762 seconds
#
# Revision: 0
# Processed by: cddbd v1.5.2PL0 Copyright (c) Steve Scherf et al.
# Submitted via: CD-Transfer v1.0
#
DISCID=320eb004
DTITLE=Friday Night Life Mixed By Dj René - 
DYEAR=1900
DGENRE=
TTITLE0=Pop2
TTITLE1=90ies
TTITLE2=Hip Hop 2
TTITLE3=Pop3
EXTD=
EXTT0=
EXTT1=
EXTT2=
EXTT3=
PLAYORDER=
